<svg height="512pt" viewBox="0 0 512 512" width="512pt" xmlns="http://www.w3.org/2000/svg"><path d="M160.008 423h-70v-226h70zm6.984-298.004c0-22.629-18.359-40.996-40.977-40.996-22.703 0-41.016 18.367-41.016 40.996 0 22.637 18.313 41.004 41.016 41.004 22.617 0 40.977-18.367 40.977-41.004zm255.008 173.668c0-60.668-12.816-105.664-83.688-105.664-34.055 0-56.914 17.031-66.246 34.742h-.066v-30.742h-68v226h68v-112.211c0-29.387 7.48-57.855 43.906-57.855 35.93 0 37.094 33.605 37.094 59.723v110.344h69zm90 153.336v-392c0-33.086-26.914-60-60-60h-392c-33.086 0-60 26.914-60 60v392c0 33.086 26.914 60 60 60h392c33.086 0 60-26.914 60-60zm-60-412c11.027 0 20 8.973 20 20v392c0 11.027-8.973 20-20 20h-392c-11.027 0-20-8.973-20-20v-392c0-11.027 8.973-20 20-20zm0 0"/></svg>